<?xml version="1.0" encoding="UTF-8"?>
<svg width="42px" height="22px" viewBox="0 0 42 22" version="1.1" xmlns="http://www.w3.org/2000/svg" xmlns:xlink="http://www.w3.org/1999/xlink">
    <!-- Generator: Sketch 41.2 (35397) - http://www.bohemiancoding.com/sketch -->
    <title>Group</title>
    <desc>Created with Sketch.</desc>
    <defs></defs>
    <g id="H-E-L-P" stroke="none" stroke-width="1" fill="none" fill-rule="evenodd">
        <g id="org_header_settings" transform="translate(-27.000000, -19.000000)" fill="#FFFFFF">
            <g id="Group" transform="translate(27.000000, 19.000000)">
                <g id="Page-1">
                    <path d="M35.8827677,16.193298 C34.4328645,17.568958 32.5044774,18.327078 30.4537032,18.327078 C28.4040581,18.327078 26.475671,17.568958 25.0257677,16.193298 C23.5758645,14.817638 22.7769613,12.989218 22.7769613,11.042438 C22.7769613,9.096758 23.5758645,7.268338 25.0257677,5.892678 C26.475671,4.517018 28.402929,3.759118 30.4537032,3.759118 C32.5056065,3.759118 34.4328645,4.517018 35.8827677,5.892678 C37.332671,7.268338 38.1318,9.097858 38.1318,11.042438 C38.1318,12.988118 37.332671,14.817638 35.8827677,16.193298" id="Fill-1" opacity="0.300000012"></path>
                    <g id="Group-5" transform="translate(0.000000, 0.085998)">
                        <path d="M35.8557161,16.081626 C34.4130387,17.450466 32.4943613,18.204626 30.4537484,18.204626 C28.4142645,18.204626 26.4955871,17.450466 25.0529097,16.081626 C23.6102323,14.712786 22.8151677,12.893606 22.8151677,10.956506 C22.8151677,9.020506 23.6102323,7.201106 25.0529097,5.832486 C26.4955871,4.463646 28.4131355,3.709266 30.4537484,3.709266 C32.4954903,3.709266 34.4130387,4.463646 35.8557161,5.832486 C37.2983935,7.201106 38.0934581,9.021606 38.0934581,10.956506 C38.0934581,12.892506 37.2983935,14.712786 35.8557161,16.081626 M22.0020387,18.204626 L11.4081032,18.204626 C7.19545806,18.204626 3.76839355,14.953246 3.76839355,10.957606 C3.76839355,6.960866 7.19545806,3.709266 11.4081032,3.709266 L22.0020387,3.709266 C18.086329,7.816666 18.086329,14.096346 22.0020387,18.204626 M38.5206839,3.304026 C36.3655871,1.260446 33.5014581,0.134046 30.4548774,0.134046 L11.4081032,0.134046 C5.1178129,0.134046 -9.03225805e-05,4.989666 -9.03225805e-05,10.957606 C-9.03225805e-05,16.924446 5.1178129,21.780066 11.4081032,21.780066 L30.4548774,21.780066 C33.5014581,21.778966 36.3667161,20.653666 38.5206839,18.608986 C40.6746516,16.565406 41.8619419,13.847966 41.8619419,10.956506 C41.8619419,8.066146 40.6746516,5.347606 38.5206839,3.304026" id="Fill-3"></path>
                    </g>
                </g>
            </g>
        </g>
    </g>
</svg>